<svg xmlns="http://www.w3.org/2000/svg" xmlns:xlink="http://www.w3.org/1999/xlink" width="68" zoomAndPan="magnify" viewBox="0 0 50.879997 59.039997" height="68" preserveAspectRatio="xMidYMid meet" version="1.0"><defs><clipPath id="fdbf0daacb"><path d="M 4.628906 4.277344 L 45.9375 4.277344 L 45.9375 45.589844 L 4.628906 45.589844 Z M 4.628906 4.277344 " clip-rule="nonzero"/></clipPath></defs><g clip-path="url(#fdbf0daacb)"><path fill="#00a6f5" d="M 40.332031 8.0625 L 36.789062 8.0625 L 36.789062 6.171875 C 36.789062 5.921875 36.742188 5.679688 36.644531 5.445312 C 36.546875 5.214844 36.410156 5.011719 36.234375 4.832031 C 36.058594 4.65625 35.851562 4.519531 35.621094 4.421875 C 35.386719 4.328125 35.148438 4.277344 34.894531 4.277344 C 34.644531 4.277344 34.402344 4.328125 34.171875 4.421875 C 33.941406 4.519531 33.734375 4.65625 33.558594 4.832031 C 33.382812 5.011719 33.246094 5.214844 33.148438 5.445312 C 33.050781 5.679688 33.003906 5.921875 33.003906 6.171875 L 33.003906 8.0625 L 27.328125 8.0625 L 27.328125 6.171875 C 27.328125 5.921875 27.28125 5.679688 27.183594 5.445312 C 27.089844 5.214844 26.953125 5.011719 26.773438 4.832031 C 26.597656 4.65625 26.394531 4.519531 26.160156 4.421875 C 25.929688 4.328125 25.6875 4.277344 25.4375 4.277344 C 25.1875 4.277344 24.945312 4.328125 24.714844 4.421875 C 24.480469 4.519531 24.277344 4.65625 24.097656 4.832031 C 23.921875 5.011719 23.785156 5.214844 23.691406 5.445312 C 23.59375 5.679688 23.546875 5.921875 23.546875 6.171875 L 23.546875 8.0625 L 17.871094 8.0625 L 17.871094 6.171875 C 17.871094 5.921875 17.820312 5.679688 17.726562 5.445312 C 17.628906 5.214844 17.492188 5.011719 17.316406 4.832031 C 17.136719 4.65625 16.933594 4.519531 16.703125 4.421875 C 16.46875 4.328125 16.230469 4.277344 15.976562 4.277344 C 15.726562 4.277344 15.484375 4.328125 15.253906 4.421875 C 15.023438 4.519531 14.816406 4.65625 14.640625 4.832031 C 14.464844 5.011719 14.328125 5.214844 14.230469 5.445312 C 14.132812 5.679688 14.085938 5.921875 14.085938 6.171875 L 14.085938 8.0625 L 10.542969 8.0625 C 10.152344 8.0625 9.769531 8.101562 9.386719 8.175781 C 9.007812 8.253906 8.636719 8.367188 8.277344 8.515625 C 7.921875 8.664062 7.582031 8.84375 7.257812 9.0625 C 6.933594 9.277344 6.636719 9.523438 6.363281 9.796875 C 6.085938 10.070312 5.84375 10.367188 5.625 10.691406 C 5.410156 11.015625 5.226562 11.355469 5.078125 11.714844 C 4.929688 12.070312 4.816406 12.441406 4.742188 12.820312 C 4.664062 13.203125 4.628906 13.585938 4.628906 13.976562 L 4.628906 39.988281 C 4.628906 40.375 4.664062 40.761719 4.742188 41.140625 C 4.816406 41.519531 4.929688 41.890625 5.078125 42.25 C 5.226562 42.609375 5.410156 42.949219 5.625 43.269531 C 5.84375 43.59375 6.085938 43.890625 6.363281 44.167969 C 6.636719 44.441406 6.933594 44.6875 7.257812 44.902344 C 7.582031 45.117188 7.921875 45.300781 8.277344 45.449219 C 8.636719 45.597656 9.007812 45.707031 9.386719 45.785156 C 9.769531 45.859375 10.152344 45.898438 10.542969 45.898438 L 40.332031 45.898438 C 40.722656 45.898438 41.105469 45.859375 41.488281 45.785156 C 41.867188 45.707031 42.238281 45.597656 42.59375 45.449219 C 42.953125 45.300781 43.292969 45.117188 43.617188 44.902344 C 43.941406 44.6875 44.238281 44.441406 44.511719 44.167969 C 44.789062 43.890625 45.03125 43.59375 45.25 43.269531 C 45.464844 42.949219 45.644531 42.609375 45.796875 42.25 C 45.945312 41.890625 46.054688 41.519531 46.132812 41.140625 C 46.207031 40.761719 46.246094 40.375 46.246094 39.988281 L 46.246094 13.976562 C 46.246094 13.585938 46.207031 13.203125 46.132812 12.820312 C 46.054688 12.441406 45.945312 12.070312 45.796875 11.714844 C 45.644531 11.355469 45.464844 11.015625 45.25 10.691406 C 45.03125 10.367188 44.789062 10.070312 44.511719 9.796875 C 44.238281 9.523438 43.941406 9.277344 43.617188 9.0625 C 43.292969 8.84375 42.953125 8.664062 42.59375 8.515625 C 42.238281 8.367188 41.867188 8.253906 41.488281 8.175781 C 41.105469 8.101562 40.722656 8.0625 40.332031 8.0625 Z M 8.410156 13.976562 C 8.410156 13.691406 8.464844 13.421875 8.574219 13.160156 C 8.683594 12.898438 8.835938 12.667969 9.035156 12.46875 C 9.234375 12.269531 9.464844 12.117188 9.726562 12.007812 C 9.988281 11.902344 10.257812 11.847656 10.542969 11.847656 L 14.085938 11.847656 L 14.085938 13.738281 C 14.085938 13.988281 14.132812 14.230469 14.230469 14.460938 C 14.328125 14.695312 14.464844 14.898438 14.640625 15.074219 C 14.816406 15.253906 15.023438 15.390625 15.253906 15.484375 C 15.484375 15.582031 15.726562 15.628906 15.976562 15.628906 C 16.230469 15.628906 16.46875 15.582031 16.703125 15.484375 C 16.933594 15.390625 17.136719 15.253906 17.316406 15.074219 C 17.492188 14.898438 17.628906 14.695312 17.726562 14.460938 C 17.820312 14.230469 17.871094 13.988281 17.871094 13.738281 L 17.871094 11.847656 L 23.546875 11.847656 L 23.546875 13.738281 C 23.546875 13.988281 23.59375 14.230469 23.691406 14.460938 C 23.785156 14.695312 23.921875 14.898438 24.097656 15.074219 C 24.277344 15.253906 24.480469 15.390625 24.714844 15.484375 C 24.945312 15.582031 25.1875 15.628906 25.4375 15.628906 C 25.6875 15.628906 25.929688 15.582031 26.160156 15.484375 C 26.394531 15.390625 26.597656 15.253906 26.773438 15.074219 C 26.953125 14.898438 27.089844 14.695312 27.183594 14.460938 C 27.28125 14.230469 27.328125 13.988281 27.328125 13.738281 L 27.328125 11.847656 L 33.003906 11.847656 L 33.003906 13.738281 C 33.003906 13.988281 33.050781 14.230469 33.148438 14.460938 C 33.246094 14.695312 33.382812 14.898438 33.558594 15.074219 C 33.734375 15.253906 33.941406 15.390625 34.171875 15.484375 C 34.402344 15.582031 34.644531 15.628906 34.894531 15.628906 C 35.148438 15.628906 35.386719 15.582031 35.621094 15.484375 C 35.851562 15.390625 36.058594 15.253906 36.234375 15.074219 C 36.410156 14.898438 36.546875 14.695312 36.644531 14.460938 C 36.742188 14.230469 36.789062 13.988281 36.789062 13.738281 L 36.789062 11.847656 L 40.332031 11.847656 C 40.617188 11.847656 40.886719 11.902344 41.148438 12.007812 C 41.410156 12.117188 41.640625 12.269531 41.839844 12.46875 C 42.039062 12.667969 42.191406 12.898438 42.300781 13.160156 C 42.410156 13.421875 42.464844 13.691406 42.464844 13.976562 L 42.464844 19.414062 L 8.410156 19.414062 Z M 42.464844 39.988281 C 42.464844 40.269531 42.410156 40.542969 42.300781 40.800781 C 42.191406 41.0625 42.039062 41.292969 41.839844 41.492188 C 41.640625 41.691406 41.410156 41.84375 41.148438 41.953125 C 40.886719 42.0625 40.617188 42.117188 40.332031 42.117188 L 10.542969 42.117188 C 10.257812 42.117188 9.988281 42.0625 9.726562 41.953125 C 9.464844 41.84375 9.234375 41.691406 9.035156 41.492188 C 8.835938 41.292969 8.683594 41.0625 8.574219 40.800781 C 8.464844 40.542969 8.410156 40.269531 8.410156 39.988281 L 8.410156 23.199219 L 42.464844 23.199219 Z M 42.464844 39.988281 " fill-opacity="1" fill-rule="nonzero"/></g><path fill="#00a6f5" d="M 22.207031 37.777344 C 22.386719 37.957031 22.589844 38.089844 22.820312 38.1875 C 23.054688 38.285156 23.292969 38.332031 23.546875 38.332031 C 23.796875 38.332031 24.039062 38.285156 24.269531 38.1875 C 24.5 38.089844 24.707031 37.957031 24.882812 37.777344 L 32.449219 30.210938 C 32.621094 30.03125 32.753906 29.828125 32.847656 29.597656 C 32.9375 29.367188 32.984375 29.128906 32.980469 28.878906 C 32.980469 28.632812 32.929688 28.394531 32.835938 28.164062 C 32.738281 27.9375 32.601562 27.734375 32.425781 27.558594 C 32.25 27.382812 32.050781 27.246094 31.820312 27.152344 C 31.59375 27.054688 31.355469 27.007812 31.105469 27.003906 C 30.859375 27.003906 30.617188 27.046875 30.386719 27.140625 C 30.15625 27.230469 29.953125 27.363281 29.773438 27.535156 L 23.546875 33.765625 L 21.097656 31.320312 C 20.921875 31.148438 20.714844 31.015625 20.484375 30.921875 C 20.253906 30.832031 20.015625 30.785156 19.769531 30.789062 C 19.519531 30.789062 19.28125 30.839844 19.054688 30.933594 C 18.824219 31.03125 18.621094 31.167969 18.449219 31.34375 C 18.273438 31.515625 18.136719 31.71875 18.039062 31.949219 C 17.945312 32.175781 17.894531 32.414062 17.894531 32.664062 C 17.890625 32.910156 17.9375 33.152344 18.027344 33.382812 C 18.121094 33.613281 18.253906 33.816406 18.425781 33.992188 Z M 22.207031 37.777344 " fill-opacity="1" fill-rule="nonzero"/></svg>