<svg xmlns="http://www.w3.org/2000/svg" xmlns:xlink="http://www.w3.org/1999/xlink" width="68" zoomAndPan="magnify" viewBox="0 0 50.879997 59.039997" height="68" preserveAspectRatio="xMidYMid meet" version="1.0"><defs><clipPath id="46e68096c9"><path d="M 0.347656 0 L 50.414062 0 L 50.414062 50.160156 L 0.347656 50.160156 Z M 0.347656 0 " clip-rule="nonzero"/></clipPath><clipPath id="ae5ca7af2e"><path d="M 7.824219 2.507812 L 43 2.507812 L 43 47.507812 L 7.824219 47.507812 Z M 7.824219 2.507812 " clip-rule="nonzero"/></clipPath></defs><g clip-path="url(#ae5ca7af2e)"><path fill="#00a6f5" d="M 25.460938 2.507812 C 15.832031 2.507812 7.921875 10.328125 7.875 19.957031 C 7.921875 23.574219 9.003906 27.101562 11.128906 30.082031 C 11.175781 30.175781 11.21875 30.265625 11.308594 30.355469 L 23.695312 46.808594 L 23.742188 46.855469 C 24.195312 47.398438 24.828125 47.667969 25.460938 47.667969 C 26.09375 47.667969 26.726562 47.351562 27.179688 46.855469 L 27.222656 46.808594 L 39.5625 30.355469 C 39.699219 30.21875 39.789062 30.128906 39.878906 29.949219 C 41.914062 27.007812 43 23.527344 43 19.957031 C 43 10.375 35.132812 2.507812 25.460938 2.507812 Z M 25.460938 5.222656 C 33.640625 5.222656 40.285156 11.867188 40.285156 20.003906 C 40.285156 23.03125 39.382812 25.925781 37.621094 28.457031 C 37.574219 28.5 37.527344 28.546875 37.527344 28.589844 L 25.460938 44.683594 L 13.4375 28.636719 L 13.390625 28.589844 C 13.390625 28.546875 13.34375 28.546875 13.300781 28.5 C 11.535156 25.96875 10.585938 23.03125 10.585938 20.003906 C 10.632812 11.820312 17.324219 5.222656 25.460938 5.222656 Z M 25.460938 11.144531 C 20.757812 11.144531 16.914062 14.851562 16.914062 19.414062 C 16.914062 23.980469 20.757812 27.734375 25.460938 27.734375 C 30.160156 27.734375 34.003906 24.027344 34.003906 19.460938 C 34.003906 14.894531 30.160156 11.144531 25.460938 11.144531 Z M 25.460938 13.855469 C 28.667969 13.855469 31.292969 16.339844 31.292969 19.414062 C 31.292969 22.488281 28.667969 25.019531 25.460938 25.019531 C 22.25 25.019531 19.628906 22.535156 19.628906 19.460938 C 19.628906 16.386719 22.25 13.855469 25.460938 13.855469 Z M 25.460938 13.855469 " fill-opacity="1" fill-rule="nonzero"/></g></svg>