<svg xmlns="http://www.w3.org/2000/svg" xmlns:xlink="http://www.w3.org/1999/xlink" width="68" zoomAndPan="magnify" viewBox="0 0 50.879997 59.039997" height="68" preserveAspectRatio="xMidYMid meet" version="1.0"><defs><clipPath id="71eded442e"><path d="M 0.347656 0 L 50.414062 0 L 50.414062 50.160156 L 0.347656 50.160156 Z M 0.347656 0 " clip-rule="nonzero"/></clipPath><clipPath id="7fe9663baa"><path d="M 9.324219 5 L 49.371094 5 L 49.371094 38.828125 L 9.324219 38.828125 Z M 9.324219 5 " clip-rule="nonzero"/></clipPath><clipPath id="14260209b1"><path d="M 9.324219 13.242188 L 49.371094 13.242188 L 49.371094 15.277344 L 9.324219 15.277344 Z M 9.324219 13.242188 " clip-rule="nonzero"/></clipPath><clipPath id="9c2138c00b"><path d="M 15 2.546875 L 18 2.546875 L 18 10 L 15 10 Z M 15 2.546875 " clip-rule="nonzero"/></clipPath><clipPath id="b96723742d"><path d="M 24 2.546875 L 27 2.546875 L 27 10 L 24 10 Z M 24 2.546875 " clip-rule="nonzero"/></clipPath><clipPath id="a79c873176"><path d="M 32 2.546875 L 35 2.546875 L 35 10 L 32 10 Z M 32 2.546875 " clip-rule="nonzero"/></clipPath><clipPath id="f8211be81b"><path d="M 41 2.546875 L 44 2.546875 L 44 10 L 41 10 Z M 41 2.546875 " clip-rule="nonzero"/></clipPath><clipPath id="5bd03f1210"><path d="M 1.429688 18.078125 L 30.964844 18.078125 L 30.964844 47.542969 L 1.429688 47.542969 Z M 1.429688 18.078125 " clip-rule="nonzero"/></clipPath></defs><g clip-path="url(#7fe9663baa)"><path fill="#00a6f5" d="M 11.324219 17.96875 L 11.324219 8.730469 C 11.324219 8.257812 11.515625 7.832031 11.828125 7.519531 C 12.136719 7.210938 12.566406 7.019531 13.035156 7.019531 L 45.785156 7.019531 C 46.253906 7.019531 46.683594 7.210938 46.992188 7.519531 C 47.304688 7.832031 47.496094 8.257812 47.496094 8.730469 L 47.496094 35.054688 C 47.496094 35.523438 47.304688 35.953125 46.992188 36.261719 C 46.683594 36.574219 46.253906 36.765625 45.785156 36.765625 L 31.378906 36.765625 C 31.210938 37.429688 30.996094 38.085938 30.746094 38.722656 L 45.785156 38.722656 C 46.796875 38.722656 47.710938 38.308594 48.375 37.644531 C 49.039062 36.980469 49.453125 36.0625 49.453125 35.054688 L 49.453125 8.730469 C 49.453125 7.71875 49.039062 6.804688 48.375 6.140625 C 47.710938 5.476562 46.796875 5.0625 45.785156 5.0625 L 13.035156 5.0625 C 12.023438 5.0625 11.109375 5.476562 10.445312 6.140625 C 9.78125 6.804688 9.367188 7.71875 9.367188 8.730469 L 9.367188 18.75 C 10 18.445312 10.65625 18.1875 11.324219 17.96875 " fill-opacity="1" fill-rule="nonzero"/></g><g clip-path="url(#14260209b1)"><path fill="#00a6f5" d="M 10.347656 13.300781 C 9.804688 13.300781 9.367188 13.738281 9.367188 14.277344 C 9.367188 14.820312 9.804688 15.257812 10.347656 15.257812 L 48.472656 15.257812 C 49.015625 15.257812 49.453125 14.820312 49.453125 14.277344 C 49.453125 13.738281 49.015625 13.300781 48.472656 13.300781 L 10.347656 13.300781 " fill-opacity="1" fill-rule="nonzero"/></g><g clip-path="url(#9c2138c00b)"><path fill="#00a6f5" d="M 17.679688 3.523438 C 17.679688 2.984375 17.242188 2.546875 16.699219 2.546875 C 16.160156 2.546875 15.722656 2.984375 15.722656 3.523438 L 15.722656 8.414062 C 15.722656 8.953125 16.160156 9.390625 16.699219 9.390625 C 17.242188 9.390625 17.679688 8.953125 17.679688 8.414062 L 17.679688 3.523438 " fill-opacity="1" fill-rule="nonzero"/></g><g clip-path="url(#b96723742d)"><path fill="#00a6f5" d="M 26.152344 3.523438 C 26.152344 2.984375 25.714844 2.546875 25.171875 2.546875 C 24.632812 2.546875 24.195312 2.984375 24.195312 3.523438 L 24.195312 8.414062 C 24.195312 8.953125 24.632812 9.390625 25.171875 9.390625 C 25.714844 9.390625 26.152344 8.953125 26.152344 8.414062 L 26.152344 3.523438 " fill-opacity="1" fill-rule="nonzero"/></g><g clip-path="url(#a79c873176)"><path fill="#00a6f5" d="M 34.625 3.523438 C 34.625 2.984375 34.1875 2.546875 33.648438 2.546875 C 33.105469 2.546875 32.667969 2.984375 32.667969 3.523438 L 32.667969 8.414062 C 32.667969 8.953125 33.105469 9.390625 33.648438 9.390625 C 34.1875 9.390625 34.625 8.953125 34.625 8.414062 L 34.625 3.523438 " fill-opacity="1" fill-rule="nonzero"/></g><g clip-path="url(#f8211be81b)"><path fill="#00a6f5" d="M 43.097656 3.523438 C 43.097656 2.984375 42.660156 2.546875 42.121094 2.546875 C 41.578125 2.546875 41.140625 2.984375 41.140625 3.523438 L 41.140625 8.414062 C 41.140625 8.953125 41.578125 9.390625 42.121094 9.390625 C 42.660156 9.390625 43.097656 8.953125 43.097656 8.414062 L 43.097656 3.523438 " fill-opacity="1" fill-rule="nonzero"/></g><g clip-path="url(#5bd03f1210)"><path fill="#00a6f5" d="M 16.152344 18.191406 C 20.21875 18.191406 23.898438 19.839844 26.5625 22.503906 C 29.226562 25.167969 30.875 28.847656 30.875 32.914062 C 30.875 36.980469 29.226562 40.660156 26.5625 43.324219 C 23.898438 45.988281 20.21875 47.636719 16.152344 47.636719 L 16.152344 45.679688 C 19.679688 45.679688 22.871094 44.253906 25.183594 41.941406 C 27.492188 39.632812 28.921875 36.4375 28.921875 32.914062 C 28.921875 29.386719 27.492188 26.195312 25.183594 23.886719 C 22.871094 21.574219 19.679688 20.144531 16.152344 20.144531 Z M 16.152344 18.191406 L 16.152344 20.144531 C 12.628906 20.144531 9.433594 21.574219 7.125 23.886719 C 4.8125 26.195312 3.386719 29.386719 3.386719 32.914062 C 3.386719 36.4375 4.8125 39.632812 7.125 41.941406 C 9.433594 44.253906 12.628906 45.679688 16.152344 45.679688 L 16.152344 47.636719 C 12.085938 47.636719 8.40625 45.988281 5.742188 43.324219 C 3.078125 40.660156 1.429688 36.980469 1.429688 32.914062 C 1.429688 28.847656 3.078125 25.167969 5.742188 22.503906 C 8.40625 19.839844 12.085938 18.191406 16.152344 18.191406 " fill-opacity="1" fill-rule="nonzero"/></g><path fill="#00a6f5" d="M 42.425781 17.199219 L 44.382812 17.199219 C 44.652344 17.199219 44.871094 17.417969 44.871094 17.6875 L 44.871094 21.707031 C 44.871094 21.976562 44.652344 22.195312 44.382812 22.195312 L 42.425781 22.195312 L 42.425781 21.21875 L 43.894531 21.21875 L 43.894531 18.175781 L 42.425781 18.175781 Z M 40.472656 17.199219 L 42.425781 17.199219 L 42.425781 18.175781 L 40.960938 18.175781 L 40.960938 21.21875 L 42.425781 21.21875 L 42.425781 22.195312 L 40.472656 22.195312 C 40.203125 22.195312 39.984375 21.976562 39.984375 21.707031 L 39.984375 17.6875 C 39.984375 17.417969 40.203125 17.199219 40.472656 17.199219 " fill-opacity="1" fill-rule="nonzero"/><path fill="#00a6f5" d="M 34.789062 17.199219 L 36.742188 17.199219 C 37.011719 17.199219 37.230469 17.417969 37.230469 17.6875 L 37.230469 21.707031 C 37.230469 21.976562 37.011719 22.195312 36.742188 22.195312 L 34.789062 22.195312 L 34.789062 21.21875 L 36.253906 21.21875 L 36.253906 18.175781 L 34.789062 18.175781 Z M 32.832031 17.199219 L 34.789062 17.199219 L 34.789062 18.175781 L 33.320312 18.175781 L 33.320312 21.21875 L 34.789062 21.21875 L 34.789062 22.195312 L 32.832031 22.195312 C 32.5625 22.195312 32.34375 21.976562 32.34375 21.707031 L 32.34375 17.6875 C 32.34375 17.417969 32.5625 17.199219 32.832031 17.199219 " fill-opacity="1" fill-rule="nonzero"/><path fill="#00a6f5" d="M 42.425781 23.445312 L 44.382812 23.445312 C 44.652344 23.445312 44.871094 23.664062 44.871094 23.9375 L 44.871094 27.957031 C 44.871094 28.226562 44.652344 28.445312 44.382812 28.445312 L 42.425781 28.445312 L 42.425781 27.464844 L 43.894531 27.464844 L 43.894531 24.425781 L 42.425781 24.425781 Z M 40.472656 23.445312 L 42.425781 23.445312 L 42.425781 24.425781 L 40.960938 24.425781 L 40.960938 27.464844 L 42.425781 27.464844 L 42.425781 28.445312 L 40.472656 28.445312 C 40.203125 28.445312 39.984375 28.226562 39.984375 27.957031 L 39.984375 23.9375 C 39.984375 23.664062 40.203125 23.445312 40.472656 23.445312 " fill-opacity="1" fill-rule="nonzero"/><path fill="#00a6f5" d="M 34.789062 23.445312 L 36.742188 23.445312 C 37.011719 23.445312 37.230469 23.664062 37.230469 23.9375 L 37.230469 27.957031 C 37.230469 28.226562 37.011719 28.445312 36.742188 28.445312 L 34.789062 28.445312 L 34.789062 27.464844 L 36.253906 27.464844 L 36.253906 24.425781 L 34.789062 24.425781 Z M 32.832031 23.445312 L 34.789062 23.445312 L 34.789062 24.425781 L 33.320312 24.425781 L 33.320312 27.464844 L 34.789062 27.464844 L 34.789062 28.445312 L 32.832031 28.445312 C 32.5625 28.445312 32.34375 28.226562 32.34375 27.957031 L 32.34375 23.9375 C 32.34375 23.664062 32.5625 23.445312 32.832031 23.445312 " fill-opacity="1" fill-rule="nonzero"/><path fill="#00a6f5" d="M 42.425781 29.695312 L 44.382812 29.695312 C 44.652344 29.695312 44.871094 29.914062 44.871094 30.183594 L 44.871094 34.203125 C 44.871094 34.472656 44.652344 34.691406 44.382812 34.691406 L 42.425781 34.691406 L 42.425781 33.714844 L 43.894531 33.714844 L 43.894531 30.671875 L 42.425781 30.671875 Z M 40.472656 29.695312 L 42.425781 29.695312 L 42.425781 30.671875 L 40.960938 30.671875 L 40.960938 33.714844 L 42.425781 33.714844 L 42.425781 34.691406 L 40.472656 34.691406 C 40.203125 34.691406 39.984375 34.472656 39.984375 34.203125 L 39.984375 30.183594 C 39.984375 29.914062 40.203125 29.695312 40.472656 29.695312 " fill-opacity="1" fill-rule="nonzero"/><path fill="#00a6f5" d="M 34.789062 29.695312 L 36.742188 29.695312 C 37.011719 29.695312 37.230469 29.914062 37.230469 30.183594 L 37.230469 34.203125 C 37.230469 34.472656 37.011719 34.691406 36.742188 34.691406 L 34.789062 34.691406 L 34.789062 33.714844 L 36.253906 33.714844 L 36.253906 30.671875 L 34.789062 30.671875 Z M 32.832031 29.695312 L 34.789062 29.695312 L 34.789062 30.671875 L 33.320312 30.671875 L 33.320312 33.714844 L 34.789062 33.714844 L 34.789062 34.691406 L 32.832031 34.691406 C 32.5625 34.691406 32.34375 34.472656 32.34375 34.203125 L 32.34375 30.183594 C 32.34375 29.914062 32.5625 29.695312 32.832031 29.695312 " fill-opacity="1" fill-rule="nonzero"/><path fill="#00a6f5" d="M 17.191406 23.078125 C 17.191406 22.539062 16.753906 22.101562 16.210938 22.101562 C 15.671875 22.101562 15.234375 22.539062 15.234375 23.078125 L 15.234375 32.855469 C 15.234375 33.394531 15.671875 33.832031 16.210938 33.832031 C 16.753906 33.832031 17.191406 33.394531 17.191406 32.855469 L 17.191406 23.078125 " fill-opacity="1" fill-rule="nonzero"/><path fill="#00a6f5" d="M 16.828125 32.097656 C 16.410156 31.757812 15.796875 31.820312 15.457031 32.238281 C 15.117188 32.65625 15.179688 33.269531 15.597656 33.609375 L 20.914062 37.921875 C 21.332031 38.261719 21.945312 38.195312 22.285156 37.78125 C 22.625 37.363281 22.558594 36.75 22.140625 36.410156 L 16.828125 32.097656 " fill-opacity="1" fill-rule="nonzero"/></svg>