<svg xmlns="http://www.w3.org/2000/svg" xmlns:xlink="http://www.w3.org/1999/xlink" width="68" zoomAndPan="magnify" viewBox="0 0 50.879997 59.039997" height="68" preserveAspectRatio="xMidYMid meet" version="1.0"><defs><clipPath id="e1c22049e3"><path d="M 0.347656 0 L 50.414062 0 L 50.414062 50.160156 L 0.347656 50.160156 Z M 0.347656 0 " clip-rule="nonzero"/></clipPath><clipPath id="4a1b010b0e"><path d="M 2.855469 2.164062 L 47.855469 2.164062 L 47.855469 47.898438 L 2.855469 47.898438 Z M 2.855469 2.164062 " clip-rule="nonzero"/></clipPath></defs><g clip-path="url(#4a1b010b0e)"><path fill="#00a6f5" d="M 47.453125 24.566406 L 45.28125 24.566406 C 45 13.976562 36.515625 5.421875 25.996094 5.140625 L 25.996094 3.035156 C 25.996094 2.757812 25.789062 2.476562 25.4375 2.476562 C 25.15625 2.476562 24.875 2.6875 24.875 3.035156 L 24.875 5.140625 C 14.355469 5.421875 5.871094 13.976562 5.660156 24.566406 L 3.417969 24.566406 C 3.136719 24.566406 2.855469 24.773438 2.855469 25.125 C 2.855469 25.476562 3.066406 25.6875 3.417969 25.6875 L 5.59375 25.6875 C 5.941406 36.132812 14.425781 44.550781 24.875 44.828125 L 24.875 47.144531 C 24.875 47.425781 25.085938 47.703125 25.4375 47.703125 C 25.71875 47.703125 25.996094 47.496094 25.996094 47.144531 L 25.996094 44.828125 C 36.445312 44.550781 44.929688 36.132812 45.28125 25.6875 L 47.453125 25.6875 C 47.734375 25.6875 48.015625 25.476562 48.015625 25.125 C 48.015625 24.773438 47.734375 24.566406 47.453125 24.566406 Z M 44.160156 24.566406 L 42.40625 24.566406 C 42.195312 15.519531 34.972656 8.226562 25.996094 7.945312 L 25.996094 6.191406 C 35.953125 6.472656 43.949219 14.535156 44.160156 24.566406 Z M 38.691406 25.617188 L 41.355469 25.617188 C 41.003906 33.960938 34.273438 40.621094 25.925781 40.902344 L 25.925781 38.378906 C 25.925781 38.097656 25.71875 37.816406 25.367188 37.816406 C 25.085938 37.816406 24.804688 38.027344 24.804688 38.378906 L 24.804688 40.902344 C 16.460938 40.621094 9.730469 33.960938 9.378906 25.617188 L 12.042969 25.617188 C 12.324219 25.617188 12.605469 25.40625 12.605469 25.054688 C 12.605469 24.703125 12.394531 24.496094 12.042969 24.496094 L 9.378906 24.496094 C 9.589844 16.078125 16.390625 9.207031 24.804688 8.925781 L 24.804688 11.730469 C 24.804688 12.011719 25.015625 12.292969 25.367188 12.292969 C 25.648438 12.292969 25.925781 12.082031 25.925781 11.730469 L 25.925781 8.925781 C 34.34375 9.207031 41.144531 16.007812 41.355469 24.496094 L 38.691406 24.496094 C 38.410156 24.496094 38.128906 24.703125 38.128906 25.054688 C 38.128906 25.40625 38.410156 25.617188 38.691406 25.617188 Z M 24.945312 6.191406 L 24.945312 7.945312 C 15.898438 8.226562 8.675781 15.519531 8.46875 24.566406 L 6.714844 24.566406 C 6.925781 14.535156 14.917969 6.472656 24.945312 6.191406 Z M 6.714844 25.617188 L 8.46875 25.617188 C 8.816406 34.523438 16.039062 41.675781 24.945312 41.953125 L 24.945312 43.707031 C 15.058594 43.425781 7.066406 35.433594 6.714844 25.617188 Z M 25.996094 43.707031 L 25.996094 41.953125 C 34.902344 41.675781 42.125 34.523438 42.476562 25.617188 L 44.230469 25.617188 C 43.878906 35.433594 35.816406 43.425781 25.996094 43.707031 Z M 25.996094 43.707031 " fill-opacity="1" fill-rule="nonzero"/></g><path fill="#00a6f5" d="M 25.4375 23.863281 C 27.609375 23.863281 29.363281 22.109375 29.363281 19.9375 C 29.363281 17.761719 27.609375 16.007812 25.4375 16.007812 C 23.261719 16.007812 21.507812 17.761719 21.507812 19.9375 C 21.507812 22.109375 23.261719 23.863281 25.4375 23.863281 Z M 25.4375 17.0625 C 27.050781 17.0625 28.3125 18.324219 28.3125 19.9375 C 28.3125 21.550781 27.050781 22.8125 25.4375 22.8125 C 23.824219 22.8125 22.5625 21.550781 22.5625 19.9375 C 22.5625 18.324219 23.824219 17.0625 25.4375 17.0625 Z M 25.4375 17.0625 " fill-opacity="1" fill-rule="nonzero"/><path fill="#00a6f5" d="M 32.941406 26.035156 C 32.167969 26.035156 31.398438 26.175781 30.695312 26.457031 C 29.292969 25.125 27.46875 24.285156 25.4375 24.285156 C 23.402344 24.285156 21.507812 25.125 20.175781 26.457031 C 19.476562 26.175781 18.703125 26.035156 17.933594 26.035156 C 14.707031 26.035156 12.042969 28.703125 12.042969 31.925781 C 12.042969 32.207031 12.253906 32.488281 12.605469 32.488281 C 40.371094 32.488281 38.898438 32.769531 38.898438 31.925781 C 38.898438 28.703125 36.234375 26.035156 32.941406 26.035156 Z M 25.4375 25.40625 C 28.800781 25.40625 31.675781 28 31.957031 31.4375 C 30.625 31.4375 19.125 31.4375 18.914062 31.4375 C 19.195312 28.070312 22 25.40625 25.4375 25.40625 Z M 19.40625 27.371094 C 18.496094 28.492188 18.003906 29.894531 17.863281 31.4375 L 13.09375 31.4375 C 13.445312 28.421875 16.460938 26.386719 19.40625 27.371094 Z M 33.007812 31.4375 C 32.871094 29.894531 32.378906 28.492188 31.46875 27.371094 C 31.957031 27.230469 32.449219 27.160156 32.941406 27.160156 C 35.464844 27.160156 37.496094 29.050781 37.777344 31.507812 L 33.007812 31.507812 Z M 33.007812 31.4375 " fill-opacity="1" fill-rule="nonzero"/><path fill="#00a6f5" d="M 32.941406 25.265625 C 34.691406 25.265625 36.164062 23.792969 36.164062 22.039062 C 36.164062 20.285156 34.691406 18.816406 32.941406 18.816406 C 31.1875 18.816406 29.714844 20.285156 29.714844 22.039062 C 29.714844 23.792969 31.1875 25.265625 32.941406 25.265625 Z M 32.941406 19.867188 C 34.132812 19.867188 35.113281 20.847656 35.113281 22.039062 C 35.113281 23.230469 34.132812 24.214844 32.941406 24.214844 C 31.746094 24.214844 30.765625 23.230469 30.765625 22.039062 C 30.835938 20.847656 31.746094 19.867188 32.941406 19.867188 Z M 32.941406 19.867188 " fill-opacity="1" fill-rule="nonzero"/><path fill="#00a6f5" d="M 17.933594 25.265625 C 19.617188 25.265625 20.949219 23.933594 20.949219 22.25 C 20.949219 20.566406 19.617188 19.234375 17.933594 19.234375 C 16.25 19.234375 14.917969 20.566406 14.917969 22.25 C 14.917969 23.863281 16.25 25.265625 17.933594 25.265625 Z M 17.933594 20.21875 C 19.054688 20.21875 19.898438 21.128906 19.898438 22.179688 C 19.898438 23.300781 18.984375 24.144531 17.933594 24.144531 C 16.8125 24.144531 15.96875 23.230469 15.96875 22.179688 C 15.96875 21.128906 16.8125 20.21875 17.933594 20.21875 Z M 17.933594 20.21875 " fill-opacity="1" fill-rule="nonzero"/></svg>